<?xml version="1.0" encoding="UTF-8" standalone="no"?>
<!-- Generator: Adobe Illustrator 15.0.0, SVG Export Plug-In . SVG Version: 6.00 Build 0)  -->

<svg
        xmlns:dc="http://purl.org/dc/elements/1.1/"
        xmlns:cc="http://creativecommons.org/ns#"
        xmlns:rdf="http://www.w3.org/1999/02/22-rdf-syntax-ns#"
        xmlns="http://www.w3.org/2000/svg"
        xmlns:xlink="http://www.w3.org/1999/xlink"
        xmlns:sodipodi="http://sodipodi.sourceforge.net/DTD/sodipodi-0.dtd"
        xmlns:inkscape="http://www.inkscape.org/namespaces/inkscape"
        version="1.1"
        id="Layer_2_1_"
        x="0px"
        y="0px"
        width="64"
        height="64"
        viewBox="0 0 64.000007 64.000003"
        enable-background="new 0 0 146.98 97.838"
        xml:space="preserve"
        sodipodi:docname="keyword-iconsvg.svg"
        inkscape:version="0.92.3 (2405546, 2018-03-11)"><metadata
   id="metadata77"><rdf:RDF><cc:Work
       rdf:about=""><dc:format>image/svg+xml</dc:format><dc:type
         rdf:resource="http://purl.org/dc/dcmitype/StillImage" /><dc:title></dc:title></cc:Work></rdf:RDF></metadata><defs
   id="defs75"><clipPath
     id="SVGID_2_-3"><use
       xlink:href="#SVGID_1_"
       overflow="visible"
       id="use5-6"
       style="overflow:visible"
       x="0"
       y="0"
       width="100%"
       height="100%" /></clipPath><clipPath
     id="clipPath855"><use
       xlink:href="#SVGID_1_"
       overflow="visible"
       id="use853"
       style="overflow:visible"
       x="0"
       y="0"
       width="100%"
       height="100%" /></clipPath><clipPath
     id="clipPath859"><use
       xlink:href="#SVGID_1_"
       overflow="visible"
       id="use857"
       style="overflow:visible"
       x="0"
       y="0"
       width="100%"
       height="100%" /></clipPath><clipPath
     id="clipPath863"><use
       xlink:href="#SVGID_1_"
       overflow="visible"
       id="use861"
       style="overflow:visible"
       x="0"
       y="0"
       width="100%"
       height="100%" /></clipPath></defs><sodipodi:namedview
   pagecolor="#ffffff"
   bordercolor="#666666"
   borderopacity="1"
   objecttolerance="10"
   gridtolerance="10"
   guidetolerance="10"
   inkscape:pageopacity="0"
   inkscape:pageshadow="2"
   inkscape:window-width="1920"
   inkscape:window-height="1021"
   id="namedview73"
   showgrid="false"
   inkscape:zoom="2.2247926"
   inkscape:cx="-124.03613"
   inkscape:cy="50.642706"
   inkscape:window-x="0"
   inkscape:window-y="0"
   inkscape:window-maximized="1"
   inkscape:current-layer="g70"
   fit-margin-top="0"
   fit-margin-left="0"
   fit-margin-right="0"
   fit-margin-bottom="0"
   showguides="true"
   inkscape:guide-bbox="true"><sodipodi:guide
     position="78.663038,53.077687"
     orientation="0,1"
     id="guide839"
     inkscape:locked="false" /><sodipodi:guide
     position="-9.2170847,86.132054"
     orientation="1,0"
     id="guide841"
     inkscape:locked="false" /></sodipodi:namedview>
<g
   id="g70"
   transform="translate(-10.01166,-71.341988)">
	<defs
   id="defs3">
		<rect
   id="SVGID_1_"
   x="15.572"
   y="23.601"
   width="114.021"
   height="54.691002" />
	</defs>
	<clipPath
   id="SVGID_2_">
		<use
   xlink:href="#SVGID_1_"
   overflow="visible"
   id="use5"
   style="overflow:visible"
   x="0"
   y="0"
   width="100%"
   height="100%" />
	</clipPath>
	
	<rect
   style="opacity:1;fill:#ffd42a;fill-opacity:0.99215686;stroke:none;stroke-width:0;stroke-linecap:round;stroke-linejoin:bevel;stroke-miterlimit:4;stroke-dasharray:none;stroke-dashoffset:42.85448837;stroke-opacity:0.99215686;paint-order:fill markers stroke"
   id="rect878"
   width="64"
   height="64"
   x="10.01166"
   y="71.341988"
   ry="4.5204463" />
	
	
	
	
	
	
	
	
	
	
	
	
	
	
	
	
	
	
	
	
	
	
	
	
	
	
	
	
	<g
   id="g901"
   transform="translate(-0.0886381,-1.9597024)"><path
     style="fill:#20221d"
     transform="matrix(0.47584169,0,0,1.1691078,7.5552609,42.740324)"
     inkscape:connector-curvature="0"
     id="path10"
     d="m 43.614,63.057 c 0,0 -0.648,0 -0.648,0.647 v 5.624 c 0,0 0,0.648 0.648,0.648 h 57.662 c 0,0 0.648,0 0.648,-0.648 v -5.624 c 0,0 0,-0.647 -0.648,-0.647 z"
     clip-path="url(#SVGID_2_)" /><path
     id="path14"
     d="m 24.146,63.057 c 0,0 -0.648,0 -0.648,0.647 v 5.624 c 0,0 0,0.648 0.648,0.648 h 14.85 c 0,0 0.648,0 0.648,-0.648 v -5.624 c 0,0 0,-0.647 -0.648,-0.647 z"
     clip-path="url(#SVGID_2_)"
     inkscape:connector-curvature="0"
     style="fill:#20221d"
     transform="matrix(0.81648568,0,0,1.1691078,-6.065272,42.740324)" /><path
     id="path16"
     d="m 54.132,52.677 c 0,0 -0.647,0 -0.647,0.647 v 5.624 c 0,0 0,0.648 0.647,0.648 h 5.624 c 0,0 0.648,0 0.648,-0.648 v -5.624 c 0,0 0,-0.647 -0.648,-0.647 z"
     clip-path="url(#SVGID_2_)"
     inkscape:connector-curvature="0"
     style="fill:#20221d"
     transform="matrix(1.1691078,0,0,1.1691078,-24.45375,44.740324)" /><path
     id="path18"
     d="m 43.752,52.677 c 0,0 -0.648,0 -0.648,0.647 v 5.624 c 0,0 0,0.648 0.648,0.648 h 5.624 c 0,0 0.647,0 0.647,-0.648 v -5.624 c 0,0 0,-0.647 -0.647,-0.647 z"
     clip-path="url(#SVGID_2_)"
     inkscape:connector-curvature="0"
     style="fill:#20221d"
     transform="matrix(1.1691078,0,0,1.1691078,-22.248018,44.740324)" /><path
     id="path20"
     d="m 24.146,52.677 c 0,0 -0.648,0 -0.648,0.647 v 5.624 c 0,0 0,0.648 0.648,0.648 h 14.85 c 0,0 0.648,0 0.648,-0.648 v -5.624 c 0,0 0,-0.647 -0.648,-0.647 z"
     clip-path="url(#SVGID_2_)"
     inkscape:connector-curvature="0"
     style="fill:#20221d"
     transform="matrix(0.81648568,0,0,1.1691078,-6.065272,44.740324)" /><path
     id="path22"
     d="m 64.512,52.677 c 0,0 -0.648,0 -0.648,0.647 v 5.624 c 0,0 0,0.648 0.648,0.648 h 5.624 c 0,0 0.647,0 0.647,-0.648 v -5.624 c 0,0 0,-0.647 -0.647,-0.647 z"
     clip-path="url(#SVGID_2_)"
     inkscape:connector-curvature="0"
     style="fill:#20221d"
     transform="matrix(1.1691078,0,0,1.1691078,-26.657145,44.740324)" /><path
     id="path32"
     d="m 49.519,42.297 c 0,0 -0.648,0 -0.648,0.647 v 5.624 c 0,0 0,0.648 0.648,0.648 h 5.624 c 0,0 0.648,0 0.648,-0.648 v -5.624 c 0,0 0,-0.647 -0.648,-0.647 z"
     clip-path="url(#SVGID_2_)"
     inkscape:connector-curvature="0"
     style="fill:#20221d"
     transform="matrix(1.1691078,0,0,1.1691078,-23.785322,46.740324)" /><path
     id="path34"
     d="m 39.139,42.297 c 0,0 -0.648,0 -0.648,0.647 v 5.624 c 0,0 0,0.648 0.648,0.648 h 5.624 c 0,0 0.648,0 0.648,-0.648 v -5.624 c 0,0 0,-0.647 -0.648,-0.647 z"
     clip-path="url(#SVGID_2_)"
     inkscape:connector-curvature="0"
     style="fill:#20221d"
     transform="matrix(1.1691078,0,0,1.1691078,-21.10165,46.740324)" /><path
     id="path36"
     d="m 24.146,42.297 c 0,0 -0.648,0 -0.648,0.647 v 5.624 c 0,0 0,0.648 0.648,0.648 h 10.237 c 0,0 0.648,0 0.648,-0.648 v -5.624 c 0,0 0,-0.647 -0.648,-0.647 z"
     clip-path="url(#SVGID_2_)"
     inkscape:connector-curvature="0"
     style="fill:#20221d"
     transform="matrix(0.81648568,0,0,1.1691078,-6.065272,46.740324)" /><path
     id="path38"
     d="m 59.898,42.297 c 0,0 -0.648,0 -0.648,0.647 v 5.624 c 0,0 0,0.648 0.648,0.648 h 5.624 c 0,0 0.648,0 0.648,-0.648 v -5.624 c 0,0 0,-0.647 -0.648,-0.647 z"
     clip-path="url(#SVGID_2_)"
     inkscape:connector-curvature="0"
     style="fill:#20221d"
     transform="matrix(1.1691078,0,0,1.1691078,-26.467826,46.740324)" /><path
     style="fill:#20221d"
     transform="matrix(1.1691078,0,0,1.1691078,-65.557516,46.740324)"
     inkscape:connector-curvature="0"
     id="path46"
     d="m 101.418,42.297 c 0,0 -0.648,0 -0.648,0.647 v 5.624 c 0,0 0,0.648 0.648,0.648 h 5.624 c 0,0 0.647,0 0.647,-0.648 v -5.624 c 0,0 0,-0.647 -0.647,-0.647 z"
     clip-path="url(#SVGID_2_)" /><path
     id="path54"
     d="m 54.439,31.916 c 0,0 -0.648,0 -0.648,0.648 v 5.624 c 0,0 0,0.648 0.648,0.648 h 5.624 c 0,0 0.647,0 0.647,-0.648 v -5.624 c 0,0 0,-0.648 -0.647,-0.648 z"
     clip-path="url(#SVGID_2_)"
     inkscape:connector-curvature="0"
     style="fill:#20221d"
     transform="matrix(1.1691078,0,0,1.1691078,-19.820177,48.740324)" /><path
     id="path56"
     d="m 44.342,31.916 c 0,0 -0.648,0 -0.648,0.648 v 5.624 c 0,0 0,0.648 0.648,0.648 h 5.624 c 0,0 0.647,0 0.647,-0.648 v -5.624 c 0,0 0,-0.648 -0.647,-0.648 z"
     clip-path="url(#SVGID_2_)"
     inkscape:connector-curvature="0"
     style="fill:#20221d"
     transform="matrix(1.1691078,0,0,1.1691078,-17.997181,48.740324)" /><path
     id="path58"
     d="m 34.244,31.916 c 0,0 -0.648,0 -0.648,0.648 v 5.624 c 0,0 0,0.648 0.648,0.648 h 5.624 c 0,0 0.648,0 0.648,-0.648 v -5.624 c 0,0 0,-0.648 -0.648,-0.648 z"
     clip-path="url(#SVGID_2_)"
     inkscape:connector-curvature="0"
     style="fill:#20221d"
     transform="matrix(1.1691078,0,0,1.1691078,-16.174185,48.740324)" /><path
     id="path60"
     d="m 24.146,31.916 c 0,0 -0.648,0 -0.648,0.648 v 5.624 c 0,0 0,0.648 0.648,0.648 h 5.624 c 0,0 0.648,0 0.648,-0.648 v -5.624 c 0,0 0,-0.648 -0.648,-0.648 z"
     clip-path="url(#SVGID_2_)"
     inkscape:connector-curvature="0"
     style="fill:#20221d"
     transform="matrix(1.1691078,0,0,1.1691078,-14.351189,48.740324)" /><path
     style="fill:#20221d"
     transform="matrix(1.1691078,0,0,1.1691078,-57.062463,48.740324)"
     inkscape:connector-curvature="0"
     id="path64"
     d="m 94.832,31.916 c 0,0 -0.648,0 -0.648,0.648 v 5.624 c 0,0 0,0.648 0.648,0.648 h 5.623 c 0,0 0.648,0 0.648,-0.648 v -5.624 c 0,0 0,-0.648 -0.648,-0.648 z"
     clip-path="url(#SVGID_2_)" /><path
     id="path14-7"
     d="m 24.146,63.057 c 0,0 -0.648,0 -0.648,0.647 v 5.624 c 0,0 0,0.648 0.648,0.648 h 14.85 c 0,0 0.648,0 0.648,-0.648 v -5.624 c 0,0 0,-0.647 -0.648,-0.647 z"
     clip-path="url(#SVGID_2_-3)"
     inkscape:connector-curvature="0"
     style="fill:#20221d"
     transform="matrix(-0.81648568,0,0,1.1691078,90.120497,42.740324)" /><path
     id="path20-5"
     d="m 24.146,52.677 c 0,0 -0.648,0 -0.648,0.647 v 5.624 c 0,0 0,0.648 0.648,0.648 h 14.85 c 0,0 0.648,0 0.648,-0.648 v -5.624 c 0,0 0,-0.647 -0.648,-0.647 z"
     clip-path="url(#SVGID_2_-3)"
     inkscape:connector-curvature="0"
     style="fill:#20221d"
     transform="matrix(-0.81648568,0,0,1.1691078,90.306288,44.740324)" /><path
     id="path36-3"
     d="m 24.146,42.297 c 0,0 -0.648,0 -0.648,0.647 v 5.624 c 0,0 0,0.648 0.648,0.648 h 10.237 c 0,0 0.648,0 0.648,-0.648 v -5.624 c 0,0 0,-0.647 -0.648,-0.647 z"
     clip-path="url(#SVGID_2_-3)"
     inkscape:connector-curvature="0"
     style="fill:#20221d"
     transform="matrix(-0.81648568,0,0,1.1691078,90.306285,46.740324)" /><path
     id="path60-5"
     d="m 24.146,31.916 c 0,0 -0.648,0 -0.648,0.648 v 5.624 c 0,0 0,0.648 0.648,0.648 h 5.624 c 0,0 0.648,0 0.648,-0.648 v -5.624 c 0,0 0,-0.648 -0.648,-0.648 z"
     clip-path="url(#SVGID_2_-3)"
     inkscape:connector-curvature="0"
     style="fill:#20221d"
     transform="matrix(-1.1691078,0,0,1.1691078,98.592195,48.740324)" /></g>
</g>
</svg>